<svg width="32" height="32" viewBox="0 0 32 32" fill="none" xmlns="http://www.w3.org/2000/svg">
  <rect width="32" height="32" rx="6" fill="#1E40AF"/>
  <path d="M8 12H24C24.5523 12 25 12.4477 25 13V23C25 23.5523 24.5523 24 24 24H8C7.44772 24 7 23.5523 7 23V13C7 12.4477 7.44772 12 8 12Z" stroke="white" stroke-width="2" stroke-linecap="round" stroke-linejoin="round"/>
  <path d="M10 12V8C10 6.89543 10.8954 6 12 6H20C21.1046 6 22 6.89543 22 8V12" stroke="white" stroke-width="2" stroke-linecap="round" stroke-linejoin="round"/>
  <circle cx="16" cy="18" r="2" stroke="white" stroke-width="2"/>
  <path d="M12 18H14" stroke="white" stroke-width="2" stroke-linecap="round"/>
  <path d="M18 18H20" stroke="white" stroke-width="2" stroke-linecap="round"/>
</svg>
